HIERARCHY
ROOT Hips
{
	OFFSET -1.337989 105.533104 -1.111724
	CHANNELS 6 Xposition Yposition Zposition Xrotation Yrotation Zrotation
	JOINT Chest
	{
		OFFSET 0.290201 13.534462 1.699510
		CHANNELS 3 Xrotation Yrotation Zrotation
		JOINT Chest2
		{
			OFFSET -0.696047 21.329926 1.901707
			CHANNELS 3 Xrotation Yrotation Zrotation
			JOINT Chest3
			{
				OFFSET -0.445886 14.919327 -0.186968
				CHANNELS 3 Xrotation Yrotation Zrotation
				JOINT Neck
				{
					OFFSET 0.374411 17.211060 1.501808
					CHANNELS 3 Xrotation Yrotation Zrotation
					JOINT Head
					{
						OFFSET -0.320650 10.411499 1.151289
						CHANNELS 3 Xrotation Yrotation Zrotation
						End Site
						{
							OFFSET -0.317003 10.419388 1.078720
						}
					}
				}
				JOINT LeftCollar
				{
					OFFSET 4.640800 12.879852 3.791657
					CHANNELS 3 Xrotation Yrotation Zrotation
					JOINT LeftUpArm
					{
						OFFSET 14.109501 -5.499893 -8.897896
						CHANNELS 3 Xrotation Yrotation Zrotation
						JOINT LeftLowArm
						{
							OFFSET 4.306854 -33.482224 0.346403
							CHANNELS 3 Xrotation Yrotation Zrotation
							JOINT LeftHand
							{
								OFFSET -0.982916 -28.306450 9.936098
								CHANNELS 3 Xrotation Yrotation Zrotation
								End Site
								{
									OFFSET -0.214813 -6.186546 2.171587
								}
							}
						}
					}
				}
				JOINT RightCollar
				{
					OFFSET -3.762097 13.022827 4.249874
					CHANNELS 3 Xrotation Yrotation Zrotation
					JOINT RightUpArm
					{
						OFFSET -14.646536 -5.765030 -7.793570
						CHANNELS 3 Xrotation Yrotation Zrotation
						JOINT RightLowArm
						{
							OFFSET -5.367897 -33.329712 0.224358
							CHANNELS 3 Xrotation Yrotation Zrotation
							JOINT RightHand
							{
								OFFSET 1.929735 -27.788666 11.181295
								CHANNELS 3 Xrotation Yrotation Zrotation
								End Site
								{
									OFFSET 0.421755 -6.073486 2.443789
								}
							}
						}
					}
				}
			}
		}
	}
	JOINT LeftUpLeg
	{
		OFFSET 10.014374 -0.248131 0.264395
		CHANNELS 3 Xrotation Yrotation Zrotation
		JOINT LeftLowLeg
		{
			OFFSET 3.757331 -47.059788 -3.904888
			CHANNELS 3 Xrotation Yrotation Zrotation
			JOINT LeftFoot
			{
				OFFSET 1.489391 -43.029572 -12.116334
				CHANNELS 3 Xrotation Yrotation Zrotation
				JOINT LeftToe
				{
					OFFSET 0.998751 -15.308893 18.005545
					CHANNELS 3 Xrotation Yrotation Zrotation
					End Site
					{
						OFFSET 1.115460 -0.387387 23.625507
					}
				}
			}
		}
	}
	JOINT RightUpLeg
	{
		OFFSET -10.014381 0.247940 -0.264419
		CHANNELS 3 Xrotation Yrotation Zrotation
		JOINT RightLowLeg
		{
			OFFSET -2.505338 -47.157982 -3.722997
			CHANNELS 3 Xrotation Yrotation Zrotation
			JOINT RightFoot
			{
				OFFSET 0.213559 -42.795265 -13.003843
				CHANNELS 3 Xrotation Yrotation Zrotation
				JOINT RightToe
				{
					OFFSET -1.248679 -17.843727 15.478987
					CHANNELS 3 Xrotation Yrotation Zrotation
					End Site
					{
						OFFSET -4.073767 -4.042347 22.948200
					}
				}
			}
		}
	}
}
MOTION
Frames: 11
Frame Time: 0.033333
-2.131436 46.495316 -12.523014 1.586578 -16.446471 -5.189784 7.155463 1.971901 -8.044657 -8.145410 6.851949 -11.537618 -1.647798 -7.931304 -2.526800 -7.841301 9.439987 -12.962208 -0.000000 0.000001 -0.000005 -15.958286 -0.529580 23.172308 -17.177560 -4.868086 85.107231 -28.959497 21.191734 36.490832 -0.000001 -0.000004 -0.000000 -11.602357 13.987212 -50.716931 -31.364871 16.686036 -78.918465 -24.006037 -21.525684 -31.534355 0.000000 -0.000004 0.000004 2.730501 -3.393187 69.211666 54.758470 -1.924359 12.632163 8.181768 -10.790408 -11.365909 -0.000003 -0.000001 -0.000002 -36.813159 40.852973 -76.180658 36.279270 37.234547 116.863499 -38.479486 -7.275315 40.021821 0.000001 -0.000001 0.000002 
-2.161234 46.492462 -12.558722 1.735279 -16.308832 -5.034006 7.284532 1.993367 -8.149741 -7.940058 6.851700 -11.541777 -1.847730 -8.118129 -2.662106 -8.158203 9.244763 -12.836822 -0.000001 0.000001 0.000001 -16.008218 -0.768876 23.151353 -17.188077 -4.439375 85.332149 -29.170795 21.229802 36.802043 -0.000000 -0.000004 -0.000001 -11.870581 13.709440 -50.540258 -31.593382 16.928197 -78.803697 -24.128681 -21.554153 -31.741713 -0.000000 -0.000003 0.000001 2.636506 -3.496994 69.102957 54.957669 -1.962763 12.437840 8.212058 -10.829674 -11.392012 0.000001 0.000002 0.000002 -36.032403 40.667926 -76.956226 35.982184 36.953239 117.218668 -38.548037 -7.676226 39.979013 0.000004 0.000003 0.000000 
-2.192688 46.495598 -12.596140 1.553640 -15.868973 -4.920090 8.348380 1.890828 -8.447352 -8.478946 6.885170 -11.478240 -1.989394 -8.610116 -2.712605 -8.541978 9.204085 -12.780276 -0.000001 0.000001 -0.000000 -16.002344 -0.518417 23.022442 -17.099963 -4.865140 85.401899 -29.251361 20.950668 36.538732 -0.000000 -0.000001 -0.000002 -11.484645 14.176738 -50.306208 -31.272226 16.609939 -79.203297 -24.026592 -21.391092 -32.793333 -0.000003 -0.000002 0.000002 2.151815 -3.893101 68.952112 54.839445 -1.848500 13.139753 8.050110 -11.034411 -11.191739 -0.000002 0.000001 0.000000 -35.547996 40.474417 -77.283754 36.152157 37.208548 117.019650 -38.650265 -7.797710 40.174370 0.000001 0.000000 0.000002 
-2.218756 46.494637 -12.632201 1.895299 -16.338647 -4.766016 8.428888 1.861543 -8.619560 -8.804530 6.829145 -11.329361 -2.015723 -8.510504 -2.853807 -8.795764 9.278474 -12.698915 -0.000001 0.000000 -0.000001 -15.788254 -0.594166 22.967585 -16.807096 -4.408078 85.607740 -28.969219 21.028967 37.741327 0.000001 -0.000003 0.000002 -11.511418 13.900042 -50.237230 -30.830917 16.271162 -79.671787 -24.021934 -21.400880 -33.801220 -0.000001 -0.000002 0.000003 2.619887 -3.546341 68.780667 54.665877 -2.095806 12.420334 8.036852 -10.314652 -11.359493 0.000001 0.000000 -0.000001 -36.170284 40.843117 -76.914098 36.362725 37.424205 116.780361 -38.393730 -7.260477 40.044597 0.000000 0.000001 0.000000 
-2.241896 46.493744 -12.664755 1.768873 -16.206077 -4.728005 8.582309 1.831892 -8.567052 -7.700256 6.743174 -11.426517 -3.033214 -8.769145 -3.046126 -8.982465 9.286285 -12.603461 -0.000001 0.000001 -0.000000 -15.579052 -0.808533 22.890218 -16.586291 -4.106390 85.695802 -28.972816 20.824926 38.090578 -0.000000 0.000003 0.000002 -11.486739 13.733134 -50.214458 -30.586147 16.108614 -79.829100 -23.872957 -21.336107 -34.611550 -0.000003 -0.000002 0.000005 2.813543 -3.384162 68.628033 54.105466 -2.114306 12.571747 7.954770 -10.259744 -11.312374 -0.000002 0.000004 -0.000003 -35.823321 40.709881 -77.194996 36.105432 37.182577 117.093293 -38.426914 -6.897448 40.171556 0.000003 0.000001 0.000000 
-2.265719 46.491539 -12.701249 1.567610 -16.108219 -4.734507 8.958241 1.812994 -8.735272 -8.265597 6.813979 -11.426596 -2.789823 -8.574280 -2.884502 -9.028149 9.090889 -12.447262 -0.000001 -0.000000 0.000003 -15.607438 -0.990435 22.755515 -16.896771 -4.736822 85.306447 -29.556947 20.807090 37.272247 -0.000001 -0.000003 -0.000003 -11.777329 13.469278 -50.073029 -30.817564 16.582268 -79.649315 -23.950750 -21.503244 -34.633202 -0.000002 -0.000005 0.000006 2.437299 -3.677773 68.684287 54.672427 -2.040938 12.780927 7.998171 -10.744932 -11.204950 0.000002 -0.000001 0.000003 -36.127206 40.806275 -76.869155 36.202755 37.332352 117.031767 -38.751830 -7.343355 40.276072 0.000002 0.000000 -0.000002 
-2.285639 46.494747 -12.732522 1.925739 -16.235399 -4.727270 9.049287 1.816499 -8.724144 -9.021145 6.820751 -11.325154 -2.062670 -8.251538 -2.892971 -9.498456 8.973879 -12.311824 -0.000000 0.000000 0.000003 -15.667108 -1.393940 22.735658 -17.139743 -4.790626 85.150152 -30.069355 20.765766 36.764026 -0.000007 -0.000000 -0.000000 -12.159327 13.206503 -50.186000 -31.367446 17.002603 -79.011137 -24.522756 -21.448201 -33.901576 -0.000003 -0.000002 -0.000001 2.412222 -3.738061 68.723410 54.958079 -2.147523 12.356697 8.066475 -10.375256 -11.399717 0.000002 -0.000002 0.000000 -35.466611 40.586770 -77.455889 35.620038 36.640464 117.614246 -38.801062 -7.542314 40.408400 -0.000002 -0.000000 0.000001 
-2.310170 46.492435 -12.762095 1.747512 -15.818645 -4.896054 9.237419 1.775715 -8.658477 -8.670279 6.697497 -11.202023 -2.452623 -8.569782 -2.990051 -9.573787 9.101743 -12.255142 -0.000000 0.000001 -0.000003 -15.534659 -1.118469 22.735864 -16.852744 -4.839601 85.000837 -30.041672 20.530323 37.301330 -0.000003 -0.000002 -0.000000 -12.022087 13.029527 -50.068637 -31.004373 17.112571 -79.108678 -24.436340 -21.299337 -34.669016 -0.000002 0.000005 0.000002 1.698197 -4.333560 69.020537 55.601718 -2.126480 12.942602 8.090442 -10.823183 -11.361244 0.000000 0.000000 0.000002 -35.400269 40.543863 -77.427141 35.133998 36.311406 118.319804 -39.365884 -7.850841 40.735474 -0.000003 0.000004 -0.000002 
-2.325698 46.483208 -12.798689 2.388939 -16.308861 -4.809473 8.556723 1.828581 -8.549557 -8.791797 6.795727 -11.293042 -2.249863 -8.642465 -2.930670 -9.736990 9.364333 -12.354794 -0.000001 0.000000 -0.000000 -15.677287 -0.520253 22.899562 -16.715228 -5.019226 84.957253 -29.545124 20.484540 38.192857 -0.000002 -0.000001 0.000002 -12.287219 12.484779 -50.017523 -31.148217 17.747126 -78.747361 -24.250416 -21.161070 -34.862276 -0.000002 -0.000001 0.000002 2.073537 -4.038475 69.086967 55.126853 -2.299303 12.251035 7.762661 -10.083892 -11.172777 -0.000002 -0.000000 -0.000001 -34.788889 40.427862 -78.111546 34.258890 35.161466 119.181829 -39.474966 -8.322742 40.934389 -0.000001 0.000001 0.000000 
-2.339259 46.473911 -12.827494 2.184691 -16.177679 -4.911193 9.032096 1.766392 -8.483553 -9.243742 6.816069 -11.195286 -2.015729 -8.536900 -2.989626 -10.051896 9.524063 -12.366654 -0.000001 -0.000000 -0.000000 -15.424259 -1.219540 22.707435 -16.458632 -4.176517 85.308223 -29.308653 20.488944 39.385890 0.000003 -0.000001 0.000002 -12.286815 12.369508 -49.942190 -31.115292 17.691966 -78.854951 -24.399232 -21.039623 -35.347134 -0.000003 -0.000002 0.000003 2.155445 -3.994002 69.185923 55.281024 -2.343377 12.364737 7.566669 -10.194201 -11.033424 0.000002 0.000002 0.000002 -34.692846 40.375051 -78.124155 34.097985 35.149789 119.446526 -39.353358 -8.193326 41.036289 0.000004 0.000001 0.000001 
-2.352478 46.457897 -12.860718 1.988654 -16.069448 -4.913589 9.288751 1.721505 -8.539248 -9.307984 6.825554 -11.195284 -1.996850 -8.331485 -2.957892 -10.099245 9.519642 -12.202621 -0.000001 0.000000 -0.000004 -15.053356 -1.474053 22.575394 -16.026675 -3.780643 85.359189 -28.916726 20.272973 40.431045 -0.000001 0.000000 0.000001 -12.210123 12.064616 -49.972639 -30.693941 17.693929 -79.078373 -24.016806 -20.963673 -36.127770 -0.000007 -0.000003 0.000002 2.192751 -3.946824 69.171853 55.287376 -2.544989 12.366705 7.553434 -10.227606 -11.104705 -0.000006 0.000000 -0.000001 -34.936503 40.530889 -77.919420 34.156133 35.452992 119.500252 -39.548561 -8.367354 41.082126 0.000002 0.000002 -0.000001 
